<svg id="Capa_1" enable-background="new 0 0 511.332 511.332" height="512" viewBox="0 0 511.332 511.332" width="512" xmlns="http://www.w3.org/2000/svg"><path d="m503.832 241.665h-35.885v-31.015h35.885c4.142 0 7.5-3.357 7.5-7.5s-3.358-7.5-7.5-7.5h-35.885v-37.528c0-17.167-13.966-31.133-31.133-31.133-9.447 0-17.919 4.235-23.633 10.9-5.714-6.665-14.186-10.9-23.633-10.9s-17.918 4.235-23.633 10.9c-5.714-6.665-14.186-10.9-23.633-10.9s-17.919 4.235-23.633 10.9c-5.714-6.665-14.186-10.9-23.633-10.9-17.167 0-31.133 13.966-31.133 31.133v37.264h-61.77v-3.66c0-12.045-9.8-21.845-21.846-21.845h-7.458v-56.446c0-14.257-11.599-25.856-25.856-25.856h-60.18c-13.127 0-23.992 9.835-25.634 22.521h-6.312c-12.901 0-23.397 10.495-23.397 23.396v44.459h-9.884c-11.881 0-21.546 9.665-21.546 21.545v52.785c0 11.88 9.665 21.545 21.545 21.545h9.884v44.459c0 12.901 10.496 23.396 23.397 23.396h6.312c1.642 12.687 12.507 22.521 25.634 22.521h60.18c14.257 0 25.856-11.6 25.856-25.856v-56.445h7.458c12.046 0 21.846-9.8 21.846-21.846v-3.659h8.344l18.22 46.372c4.979 12.673 15.949 21.688 29.346 24.116l29.493 5.346v82.304c-7.857 14.148-12 30.116-12 46.317v28.354c0 4.143 3.358 7.5 7.5 7.5s7.5-3.357 7.5-7.5v-28.354c0-14.235 3.795-28.257 10.977-40.549.67-1.148 1.024-2.454 1.024-3.783v-81.57l9.503 1.723c.453.082.902.121 1.347.121 3.556 0 6.714-2.54 7.371-6.163.739-4.076-1.966-7.979-6.042-8.718l-53.996-9.788c-8.245-1.494-14.997-7.043-18.061-14.842l-16.065-40.887h37.309v9.303c0 4.143 3.358 7.5 7.5 7.5s7.5-3.357 7.5-7.5v-107.58c0-8.896 7.237-16.133 16.133-16.133s16.133 7.237 16.133 16.133v13.317 16.713c0 4.143 3.358 7.5 7.5 7.5s7.5-3.357 7.5-7.5v-16.712-13.317c0-8.896 7.237-16.133 16.133-16.133s16.133 7.237 16.133 16.133v6.271 23.76c0 4.143 3.358 7.5 7.5 7.5s7.5-3.357 7.5-7.5v-23.76-6.271c0-8.896 7.237-16.133 16.133-16.133s16.133 7.237 16.133 16.133v6.271 23.76c0 4.143 3.358 7.5 7.5 7.5s7.5-3.357 7.5-7.5v-23.76-6.271c0-8.896 7.237-16.133 16.133-16.133s16.133 7.237 16.133 16.133v112.609c0 28.157-22.908 51.065-51.065 51.065-4.142 0-7.5 3.357-7.5 7.5s3.358 7.5 7.5 7.5c3.816 0 7.552-.343 11.192-.968v153.382c0 4.143 3.358 7.5 7.5 7.5s7.5-3.357 7.5-7.5v-157.841c23.434-10.162 39.873-33.512 39.873-60.639v-14.066h35.885c4.142 0 7.5-3.357 7.5-7.5s-3.357-7.5-7.499-7.5zm-482.287 17.165c-3.609 0-6.545-2.936-6.545-6.545v-52.785c0-3.609 2.936-6.545 6.545-6.545h9.884v65.875zm136.263 79.521c0 5.986-4.87 10.856-10.856 10.856h-60.18c-5.986 0-10.856-4.87-10.856-10.856v-155.387c0-4.143-3.358-7.5-7.5-7.5s-7.5 3.357-7.5 7.5v143.722h-6.089c-4.63 0-8.397-3.767-8.397-8.396v-51.96-80.875-51.959c0-4.63 3.767-8.396 8.397-8.396h6.089v27.864c0 4.143 3.358 7.5 7.5 7.5s7.5-3.357 7.5-7.5v-39.529c0-5.986 4.87-10.856 10.856-10.856h60.18c5.986 0 10.856 4.87 10.856 10.856v63.946 97.024zm29.303-78.291c0 3.774-3.071 6.846-6.846 6.846h-7.458v-82.024h7.458c3.775 0 6.846 3.07 6.846 6.845zm15-18.659v-31.015h61.77v31.015z"/><path d="m253.803 70.604h5.197v29.957c0 5.353 4.355 9.707 9.708 9.707h28.613c5.353 0 9.707-4.354 9.707-9.707v-29.957h5.197c3.764 0 7.116-2.107 8.748-5.5 1.631-3.392 1.186-7.326-1.164-10.267v.001l-29.209-36.567c-1.852-2.319-4.617-3.65-7.585-3.65-2.969 0-5.734 1.331-7.584 3.649l-29.21 36.567c-2.35 2.94-2.796 6.875-1.164 10.268 1.631 3.391 4.982 5.499 8.746 5.499zm29.211-37.795 18.218 22.808c-5.12.263-9.205 4.511-9.205 9.694v29.957h-18.027v-29.957c0-5.184-4.085-9.432-9.205-9.694z"/><path d="m105.209 418.452-29.209-36.567c-1.852-2.319-4.616-3.649-7.584-3.65-.001 0-.001 0-.001 0-2.968 0-5.732 1.33-7.584 3.649l-29.211 36.568c-2.349 2.941-2.794 6.875-1.162 10.268 1.632 3.392 4.983 5.498 8.747 5.498h5.197v29.957c0 5.353 4.354 9.707 9.707 9.707h28.613c5.353 0 9.707-4.354 9.707-9.707v-29.957h5.197c3.764 0 7.116-2.107 8.748-5.499 1.63-3.393 1.185-7.327-1.165-10.267zm-27.78 10.473v29.957h-18.028v-29.957c0-5.185-4.085-9.433-9.205-9.694l18.219-22.808 18.218 22.808c-5.119.262-9.204 4.51-9.204 9.694z"/><path d="m253.64 378.444-26.07-32.637c-1.807-2.263-4.504-3.56-7.399-3.56s-5.592 1.297-7.399 3.56l-26.07 32.637c-2.292 2.869-2.726 6.707-1.134 10.016s4.861 5.364 8.533 5.364h3.832v25.931c0 5.222 4.249 9.47 9.47 9.47h25.537c5.222 0 9.47-4.248 9.47-9.47v-25.931h3.832c3.672 0 6.941-2.056 8.533-5.364 1.591-3.309 1.157-7.147-1.135-10.016zm-26.231 9.849v25.931h-14.477v-25.931c0-4.547-3.221-8.355-7.5-9.264l14.739-18.452 14.739 18.452c-4.28.909-7.501 4.717-7.501 9.264z"/></svg>